# xmcd
#
# Track frame offsets:
#	150
#	14351
#	24277
#	39655
#	52498
#	65809
#	80565
#	97301
#	111365
#	128213
#	141738
#	158645
#
# Disc length: 2286 seconds
#
# Revision: 1
# Processed by: cddbd v1.5.2PL0 Copyright (c) Steve Scherf et al.
# Submitted via: audiograbber 1.83.01
#
DISCID=b608ec0c
DTITLE=Erkki Hällström - Kulkurin Iltatähti
DYEAR=2007
DGENRE=Pop
TTITLE0=Kulkurin Iltatähti
TTITLE1=Rempallaan
TTITLE2=Kuubalainen Serenadi
TTITLE3=Syysunelmia
TTITLE4=Suopursu
TTITLE5=Elämää Juoksuhaudoissa
TTITLE6=Linnan Taru
TTITLE7=Ilta Skanssissa
TTITLE8=Hopeahapset
TTITLE9=Minä Soitan Sinulle Illalla
TTITLE10=Vanhan Myllyn Tarina
TTITLE11=Eilisiin Haaveisiin
EXTD=TR.
EXTT0=
EXTT1=
EXTT2=
EXTT3=
EXTT4=
EXTT5=
EXTT6=
EXTT7=
EXTT8=
EXTT9=
EXTT10=
EXTT11=
PLAYORDER=
